<?xml version="1.0"?>
<svg xmlns="http://www.w3.org/2000/svg" xmlns:xlink="http://www.w3.org/1999/xlink" xmlns:svgjs="http://svgjs.com/svgjs" version="1.1" width="512" height="512" x="0" y="0" viewBox="0 0 512 512" style="enable-background:new 0 0 512 512" xml:space="preserve" class=""><g><g xmlns="http://www.w3.org/2000/svg"><g><path d="m256 22c-135.31 0-245 109.69-245 245 0 120.172 86.524 220.126 200.67 240.989l9.415-4.394 5.851 6.681c9.533 1.127 19.228 1.724 29.064 1.724s19.531-.597 29.064-1.724l6.319-7.532 8.947 5.245c114.146-20.863 200.67-120.817 200.67-240.989 0-135.31-109.69-245-245-245z" fill="#ff950d" data-original="#543e5b" style="" class=""/></g><g><circle cx="256" cy="282" fill="#f9b164" r="200" data-original="#45304c" style="" class=""/></g><g><path d="m176.735 399.331c-27.637-15.806-42.74-40.414-41.437-67.513.556-11.562 4.129-22.539 9.988-31.845h-17.089c-4.587 9.547-7.352 20.129-7.881 31.124-1.583 32.932 16.267 62.549 48.972 81.254 32.339 18.495 50.952 51.42 46.319 81.933-.739 4.869-2.069 9.448-3.937 13.705 5.036.92 10.127 1.68 15.266 2.287 1.578-4.347 2.77-8.924 3.502-13.74 5.555-36.593-16.026-75.657-53.703-97.205z" fill="#bec8f7" data-original="#bec8f7" style=""/></g><g><path d="m383.803 299.974h-17.089c5.859 9.306 9.432 20.283 9.988 31.845 1.303 27.099-13.8 51.707-41.437 67.513-37.677 21.548-59.258 60.612-53.702 97.205.731 4.816 1.923 9.393 3.502 13.74 5.138-.607 10.23-1.367 15.266-2.287-1.868-4.257-3.198-8.835-3.937-13.705-4.633-30.513 13.98-63.438 46.319-81.933 32.706-18.705 50.556-48.321 48.972-81.254-.529-10.995-3.295-21.577-7.882-31.124z" fill="#bec8f7" data-original="#bec8f7" style=""/></g><g><g><circle cx="133.029" cy="299.975" fill="#a8b5e5" r="28.654" data-original="#a8b5e5" style="" class=""/></g><g><path d="m133.029 299.975c20.381-5.461 32.476-26.41 27.015-46.791l-44.685-166.768-73.806 19.776 44.685 166.768c5.461 20.381 26.41 32.476 46.791 27.015z" fill="#d3dcfb" data-original="#d3dcfb" style="" class=""/></g><g><path d="m115.359 86.416 41.606 155.275c-5.461-20.381-26.41-32.476-46.791-27.015-20.381 5.461-32.476 26.41-27.015 46.791l-41.606-155.275z" fill="#bec8f7" data-original="#bec8f7" style=""/></g><g><path d="m148.035 14.782 62.598.87c9.434.131 17.632 6.513 20.074 15.626l12.115 45.215c2.442 9.113-1.467 18.739-9.571 23.57l-53.776 32.053z" fill="#bec8f7" data-original="#bec8f7" style=""/></g><g><circle cx="123.021" cy="84.363" fill="#e9efff" r="84.342" data-original="#e9efff" style=""/></g><g><path d="m115.359 86.416c-8.497-31.71 2.259-64.041 25.099-84.589-12.59-2.671-25.983-2.492-39.267 1.068-44.993 12.056-71.695 58.304-59.638 103.297s58.304 71.695 103.298 59.639c13.284-3.559 24.971-10.101 34.54-18.709-30.055-6.374-55.536-28.996-64.032-60.706z" fill="#d3dcfb" data-original="#d3dcfb" style="" class=""/></g><g><path d="m59.103 141.043 73.806-19.776c20.381-5.461 32.476-26.41 27.015-46.791-5.461-20.381-26.41-32.476-46.791-27.015l-73.807 19.775c-20.381 5.461-32.476 26.41-27.015 46.791 5.461 20.382 26.411 32.477 46.792 27.016z" fill="#d3dcfb" data-original="#d3dcfb" style="" class=""/></g><g><path d="m86.118 94.251c-5.461-20.381 6.634-41.33 27.015-46.791l-73.807 19.776c-20.381 5.461-32.476 26.41-27.015 46.791 5.461 20.381 26.41 32.476 46.791 27.015l73.806-19.776c-20.38 5.461-41.329-6.634-46.79-27.015z" fill="#bec8f7" data-original="#bec8f7" style=""/></g><g><circle cx="123.021" cy="84.363" fill="#ffffff" r="19.102" data-original="#ffffff" style="" class=""/></g><g><path d="m123.021 84.363c-1.829-6.826.294-13.767 4.949-18.435-3.138-.846-6.528-.918-9.893-.017-10.19 2.731-16.238 13.205-13.507 23.396 2.731 10.19 13.205 16.238 23.396 13.507 3.365-.902 6.264-2.659 8.559-4.961-6.366-1.714-11.675-6.664-13.504-13.49z" fill="#e9efff" data-original="#e9efff" style=""/></g></g><g><g><circle cx="378.971" cy="299.974" fill="#a8b5e5" r="28.654" data-original="#a8b5e5" style="" class=""/></g><g><path d="m378.971 299.974c-20.381-5.461-32.476-26.41-27.015-46.791l44.685-166.767 73.806 19.776-44.685 166.767c-5.461 20.381-26.41 32.476-46.791 27.015z" fill="#d3dcfb" data-original="#d3dcfb" style="" class=""/></g><g><path d="m396.642 86.416-41.606 155.274c5.461-20.381 26.41-32.476 46.791-27.015 20.381 5.461 32.476 26.41 27.015 46.791l41.606-155.274z" fill="#bec8f7" data-original="#bec8f7" style=""/></g><g><path d="m363.965 14.782-62.598.87c-9.434.131-17.632 6.513-20.074 15.626l-12.115 45.214c-2.442 9.113 1.467 18.739 9.571 23.57l53.776 32.053z" fill="#bec8f7" data-original="#bec8f7" style=""/></g><g><circle cx="388.98" cy="84.363" fill="#e9efff" r="84.342" data-original="#e9efff" style=""/></g><g><path d="m381.318 82.31c8.497-31.71 33.977-54.332 64.031-60.706-9.568-8.608-21.256-15.149-34.54-18.709-44.994-12.056-91.241 14.645-103.297 59.639s14.645 91.241 59.639 103.297c13.284 3.559 26.676 3.738 39.266 1.068-22.84-20.548-33.596-52.88-25.099-84.589z" fill="#d3dcfb" data-original="#d3dcfb" style="" class=""/></g><g><path d="m379.091 121.266 73.806 19.776c20.381 5.461 41.33-6.634 46.791-27.015 5.461-20.381-6.634-41.33-27.015-46.791l-73.805-19.776c-20.381-5.461-41.33 6.634-46.791 27.015-5.461 20.381 6.634 41.33 27.014 46.791z" fill="#d3dcfb" data-original="#d3dcfb" style="" class=""/></g><g><path d="m425.883 94.251c5.461-20.381 26.41-32.476 46.791-27.015l-73.806-19.776c-20.381-5.461-41.33 6.634-46.791 27.015-5.461 20.381 6.634 41.33 27.015 46.791l73.806 19.776c-20.381-5.461-32.476-26.41-27.015-46.791z" fill="#bec8f7" data-original="#bec8f7" style=""/></g><g><circle cx="388.98" cy="84.363" fill="#ffffff" r="19.102" data-original="#ffffff" style="" class=""/></g><g><path d="m388.98 84.363c1.829-6.826 7.138-11.776 13.503-13.491-2.295-2.301-5.194-4.059-8.559-4.961-10.19-2.731-20.665 3.317-23.396 13.507-2.73 10.19 3.317 20.665 13.507 23.396 3.365.902 6.755.829 9.893-.017-4.654-4.667-6.777-11.609-4.948-18.434z" fill="#e9efff" data-original="#e9efff" style=""/></g></g></g></g></svg>
