<svg id="Capa_1" enable-background="new 0 0 512 512" height="512" viewBox="0 0 512 512" width="512" xmlns="http://www.w3.org/2000/svg"><g><g><path d="m256 22c-135.31 0-245 109.69-245 245 0 98.106 57.672 182.728 140.955 221.855h15.529l12.549 11.121c19.374 6.313 39.807 10.276 60.967 11.555l15-10.657 15 10.657c21.16-1.278 41.593-5.241 60.967-11.555l12.549-11.121h15.529c83.283-39.127 140.955-123.749 140.955-221.855 0-135.31-109.69-245-245-245z" fill="#ffb332"/></g><g><circle cx="256" cy="222" fill="#ffdd40" r="180"/></g><g><path d="m151.955 488.855c9.07 4.261 18.443 7.981 28.079 11.121l51.503-192.211-28.979-7.765z" fill="#e9efff"/></g><g><path d="m151.955 488.855c4.565 2.145 9.2 4.164 13.913 6.03l51.179-191.002-14.489-3.883z" fill="#d3dcfb"/></g><g><path d="m210.753 385.326-28.978-7.765c-2.667-.715-5.409.868-6.124 3.536l-12.941 48.296c-.715 2.667.868 5.409 3.536 6.124l28.978 7.765c2.667.715 5.409-.868 6.124-3.536l12.941-48.296c.714-2.667-.869-5.409-3.536-6.124z" fill="#3b3868"/></g><g><path d="m182.029 434.57 12.941-48.296c.715-2.667 3.456-4.25 6.124-3.536l-19.319-5.176c-2.667-.715-5.409.868-6.124 3.536l-12.941 48.296c-.715 2.667.868 5.409 3.536 6.124l19.319 5.176c-2.668-.715-4.251-3.457-3.536-6.124z" fill="#2d2d59"/></g><g><path d="m208.292 423.49-43.467-11.647c-4.001-1.072-6.375-5.185-5.303-9.186 1.072-4.001 5.185-6.375 9.186-5.303l43.467 11.647c4.001 1.072 6.375 5.185 5.303 9.186-1.073 4-5.185 6.375-9.186 5.303z" fill="#47477f"/></g><g><path d="m241 511.53c4.963.3 9.961.47 15 .47s10.037-.171 15-.47v-196.53h-30z" fill="#e9efff"/></g><g><path d="m241 315v196.53c4.963.3 9.961.47 15 .47v-197z" fill="#d3dcfb"/></g><g><path d="m271 395.298h-30c-2.761 0-5 2.239-5 5v50c0 2.761 2.239 5 5 5h30c2.761 0 5-2.239 5-5v-50c0-2.762-2.239-5-5-5z" fill="#3b3868"/></g><g><path d="m256 450.298v-50c0-2.761 2.239-5 5-5h-20c-2.761 0-5 2.239-5 5v50c0 2.761 2.239 5 5 5h20c-2.761 0-5-2.239-5-5z" fill="#2d2d59"/></g><g><path d="m278.5 432.798h-45c-4.142 0-7.5-3.358-7.5-7.5 0-4.142 3.358-7.5 7.5-7.5h45c4.142 0 7.5 3.358 7.5 7.5 0 4.142-3.358 7.5-7.5 7.5z" fill="#47477f"/></g><g><path d="m309.442 300-28.978 7.765 51.503 192.211c9.636-3.14 19.009-6.86 28.079-11.121z" fill="#e9efff"/></g><g><path d="m294.953 303.882-14.489 3.882 51.503 192.211c4.786-1.56 9.514-3.249 14.165-5.09z" fill="#d3dcfb"/></g><g><path d="m330.225 377.562-28.978 7.765c-2.667.715-4.25 3.456-3.536 6.124l12.941 48.296c.715 2.667 3.456 4.25 6.124 3.536l28.978-7.765c2.667-.715 4.25-3.456 3.536-6.124l-12.941-48.296c-.715-2.668-3.457-4.251-6.124-3.536z" fill="#3b3868"/></g><g><path d="m329.971 434.57-12.941-48.296c-.715-2.667.868-5.409 3.536-6.124l-19.319 5.176c-2.667.715-4.25 3.456-3.536 6.124l12.941 48.296c.715 2.667 3.456 4.25 6.124 3.536l19.319-5.176c-2.668.714-5.41-.869-6.124-3.536z" fill="#2d2d59"/></g><g><path d="m347.175 411.843-43.467 11.647c-4.001 1.072-8.114-1.302-9.186-5.303-1.072-4.001 1.302-8.113 5.303-9.186l43.467-11.647c4.001-1.072 8.114 1.302 9.186 5.303 1.072 4.001-1.302 8.114-5.303 9.186z" fill="#47477f"/></g><g><path d="m296 330h-80c-11.046 0-20-8.954-20-20v-20h120v20c0 11.046-8.954 20-20 20z" fill="#3b3868"/></g><g><path d="m242 310v-20h-46v20c0 11.046 8.954 20 20 20h46c-11.046 0-20-8.954-20-20z" fill="#2d2d59"/></g><g><path d="m376 287.5h-60c-4.142 0-7.5-3.358-7.5-7.5s3.358-7.5 7.5-7.5h60c4.142 0 7.5 3.358 7.5 7.5s-3.358 7.5-7.5 7.5z" fill="#2d2d59"/></g><g><path d="m241 210h30v65h-30z" fill="#d3dcfb"/></g><g><path d="m336 280c0-11.046-8.954-20-20-20h-120c-11.046 0-20 8.954-20 20 0 11.046 8.954 20 20 20h120c11.046 0 20-8.954 20-20z" fill="#47477f"/></g><g><path d="m222 280c0-11.046 8.954-20 20-20h-46c-11.046 0-20 8.954-20 20 0 11.046 8.954 20 20 20h46c-11.046 0-20-8.954-20-20z" fill="#3b3868"/></g><g><path d="m296 230h-80c-11.046 0-20-8.954-20-20v-20h120v20c0 11.046-8.954 20-20 20z" fill="#3b3868"/></g><g><path d="m242 210v-20h-46v20c0 11.046 8.954 20 20 20h46c-11.046 0-20-8.954-20-20z" fill="#2d2d59"/></g><g><path d="m306 50h-100l17.486-43.714c1.518-3.796 5.195-6.286 9.284-6.286h46.459c4.089 0 7.766 2.49 9.285 6.286z" fill="#3b3868"/></g><g><path d="m272.77 0h-40c-4.089 0-7.766 2.49-9.285 6.286l-17.485 43.714h40l17.486-43.714c1.518-3.796 5.195-6.286 9.284-6.286z" fill="#2d2d59"/></g><g><path d="m196 50h-40v-20c0-5.523 4.477-10 10-10h20c5.523 0 10 4.477 10 10z" fill="#3b3868"/></g><g><path d="m186 20h-20c-5.523 0-10 4.477-10 10v20h20v-20c0-5.523 4.477-10 10-10z" fill="#2d2d59"/></g><g><path d="m316 50h40v-20c0-5.523-4.477-10-10-10h-20c-5.523 0-10 4.477-10 10z" fill="#3b3868"/></g><g><path d="m346 20h-20c-5.523 0-10 4.477-10 10v20h20v-20c0-5.523 4.477-10 10-10z" fill="#2d2d59"/></g><g><path d="m356 200h-200c-11.046 0-20-8.954-20-20v-120c0-11.046 8.954-20 20-20h200c11.046 0 20 8.954 20 20v120c0 11.046-8.954 20-20 20z" fill="#47477f"/></g><g><path d="m176 180v-120c0-11.046 8.954-20 20-20h-40c-11.046 0-20 8.954-20 20v120c0 11.046 8.954 20 20 20h40c-11.046 0-20-8.954-20-20z" fill="#3b3868"/></g><g><circle cx="256" cy="120" fill="#5f5f9b" r="65"/></g><g><circle cx="256" cy="120" fill="#8ae1ff" r="50"/></g><g><path d="m256 70c-27.57 0-50 22.43-50 50s22.43 50 50 50c-5.514 0-10-4.486-10-10s4.486-10 10-10v-60c-5.514 0-10-4.486-10-10s4.486-10 10-10z" fill="#42c3fc"/></g><g><circle cx="256" cy="120" fill="#1aa9e8" r="30"/></g><g><circle cx="271" cy="105" fill="#b8f0ff" r="15"/></g><g><path d="m268.5 27.5h-25c-4.142 0-7.5-3.358-7.5-7.5 0-4.142 3.358-7.5 7.5-7.5h25c4.142 0 7.5 3.358 7.5 7.5 0 4.142-3.358 7.5-7.5 7.5z" fill="#47477f"/></g><g><g><circle cx="348.5" cy="67.5" fill="#ff4155" r="10"/></g><g><path d="m348.5 67.5c0-3.699 2.014-6.921 5-8.651-1.472-.853-3.176-1.349-5-1.349-5.523 0-10 4.477-10 10s4.477 10 10 10c1.824 0 3.528-.496 5-1.349-2.986-1.73-5-4.952-5-8.651z" fill="#e80054"/></g></g><g><path d="m376 300c-11.046 0-20-8.954-20-20 0-11.046 8.954-20 20-20 11.046 0 20 8.954 20 20 0 11.046-8.954 20-20 20z" fill="#47477f"/></g></g></svg>