<svg id="Capa_1" enable-background="new 0 0 512 512" height="512" viewBox="0 0 512 512" width="512" xmlns="http://www.w3.org/2000/svg"><g><path d="m497 13.668h-482c-8.284 0-15 6.716-15 15v284.735l15 30h482l15-30v-284.735c0-8.284-6.716-15-15-15z" fill="#edf5ff"/><path d="m497 13.668h-241v329.735h241l15-30v-284.735c0-8.284-6.716-15-15-15z" fill="#d7e9ff"/><path d="m318.711 468.332h-4.321v-61.869c0-8.284-6.716-15-15-15h-86.78c-8.284 0-15 6.716-15 15v61.869h-4.321c-8.284 0-15 6.716-15 15s6.716 15 15 15h125.422c8.284 0 15-6.716 15-15s-6.716-15-15-15z" fill="#615ad3"/><path d="m318.711 468.332h-4.321v-61.869c0-8.284-6.716-15-15-15h-43.39v106.869h62.711c8.284 0 15-6.716 15-15s-6.716-15-15-15z" fill="#47419b"/><path d="m512 313.403h-512v93.06c0 8.284 6.716 15 15 15h482c8.284 0 15-6.716 15-15z" fill="#47419b"/><path d="m256 421.463h241c8.284 0 15-6.716 15-15v-93.06h-256z" fill="#2c3b73"/><g><g><g><g><path d="m330.228 235.532c-8.284 0-15-6.716-15-15v-113.993c0-8.284 6.716-15 15-15s15 6.716 15 15v113.993c0 8.284-6.716 15-15 15z" fill="#ffb44b"/></g></g><g><g><path d="m219.581 235.532c-.027 0-.054 0-.082 0-10.619-.015-20.399-2.83-29.068-8.369-16.461-10.517-24.808-24.709-24.808-42.185v-78.439c0-8.284 6.716-15 15-15s15 6.716 15 15v78.439c0 5.943 1.863 11.093 10.959 16.903 3.835 2.45 8.072 3.644 12.957 3.65h.045c4.472 0 8.403-.885 12.017-2.705 11.729-5.907 13.232-12.686 13.232-17.931v-78.357c0-8.284 6.716-15 15-15s15 6.716 15 15v78.357c0 13.57-5.159 32.346-29.737 44.724-7.789 3.924-16.374 5.913-25.515 5.913z" fill="#ffd830"/></g></g></g><path d="m259.833 91.539c-1.327 0-2.607.189-3.833.513v130.758c15.266-11.801 18.833-26.649 18.833-37.913v-78.357c0-8.285-6.716-15.001-15-15.001z" fill="#ffb44b"/></g></g></svg>